<svg width="40" height="40" viewBox="0 0 40 40" fill="none" xmlns="http://www.w3.org/2000/svg">
<rect width="40" height="40" fill="#1E1E1E"/>
<g clip-path="url(#clip0_0_1)">
<rect x="-278" y="-712" width="430" height="932" rx="55.47" fill="white"/>
<path d="M33.4054 21.2497C33.4274 19.719 33.9262 18.2179 34.8549 16.887C35.7836 15.556 37.1119 14.4388 38.7155 13.6398C37.6963 12.4581 36.3546 11.4848 34.7957 10.7963C33.2369 10.1079 31.5033 9.72297 29.731 9.67186C25.9044 9.35587 22.2645 11.5058 20.3266 11.5058C18.3863 11.5058 15.3923 9.71786 12.2215 9.76586C10.1381 9.81272 8.10543 10.2997 6.32284 11.179C4.54025 12.0584 3.06894 13.2999 2.05319 14.7818C-2.27447 20.9017 0.950396 29.9676 5.16753 34.9335C7.23065 37.3615 9.69413 40.0954 12.9239 39.9974C16.0382 39.8974 17.2123 38.3575 20.9726 38.3575C24.7329 38.3575 25.7914 39.9974 29.0777 39.9474C32.4278 39.8974 34.5524 37.4695 36.5983 35.0335C38.0646 33.281 39.2105 31.3644 40 29.3436C38.0504 28.6661 36.387 27.5386 35.2151 26.1003C34.0433 24.662 33.4141 22.9758 33.4054 21.2497ZM27.2233 6.38591C29.0769 4.61542 29.9952 2.31978 29.7777 0C26.9797 0.221699 24.3918 1.30647 22.5445 3.03196C21.6226 3.8679 20.9167 4.8464 20.469 5.90915C20.0213 6.97189 19.8409 8.09715 19.9385 9.21787C21.3384 9.23323 22.7237 8.98573 23.9871 8.4946C25.2504 8.00347 26.3578 7.28191 27.2233 6.38591Z" fill="black"/>
</g>
<defs>
<clipPath id="clip0_0_1">
<rect x="-278" y="-712" width="430" height="932" rx="55.47" fill="white"/>
</clipPath>
</defs>
</svg>
