<svg width="40" height="40" viewBox="0 0 40 40" fill="none" xmlns="http://www.w3.org/2000/svg">
<rect width="40" height="40" fill="#1E1E1E"/>
<g clip-path="url(#clip0_0_1)">
<rect x="-112" y="-712" width="430" height="932" rx="55.47" fill="white"/>
<g clip-path="url(#clip1_0_1)">
<path d="M13.9344 1.31556C9.93775 2.70202 6.49107 5.33358 4.1006 8.82369C1.71012 12.3138 0.501848 16.4785 0.653257 20.7061C0.804666 24.9336 2.30778 29.0012 4.9418 32.3114C7.57583 35.6216 11.2019 37.9998 15.2875 39.0968C18.5998 39.9515 22.07 39.989 25.4 39.2062C28.4166 38.5286 31.2056 37.0792 33.4937 34.9999C35.8752 32.7698 37.6039 29.9327 38.4937 26.7937C39.461 23.3801 39.6331 19.7903 38.9969 16.2999H20.3969V24.0156H31.1687C30.9535 25.2461 30.4921 26.4207 29.8123 27.4688C29.1326 28.5169 28.2483 29.4171 27.2125 30.1156C25.8971 30.9857 24.4144 31.5711 22.8594 31.8343C21.2998 32.1243 19.7002 32.1243 18.1406 31.8343C16.56 31.5075 15.0647 30.8551 13.75 29.9187C11.638 28.4236 10.0521 26.2997 9.21875 23.8499C8.3713 21.3543 8.3713 18.6487 9.21875 16.1531C9.81196 14.4037 10.7926 12.811 12.0875 11.4937C13.5693 9.95852 15.4454 8.86117 17.5099 8.32205C19.5743 7.78292 21.7474 7.82284 23.7906 8.43743C25.3868 8.92741 26.8464 9.78349 28.0531 10.9374C29.2677 9.7291 30.4802 8.51764 31.6906 7.30306C32.3156 6.64993 32.9969 6.02806 33.6125 5.35931C31.7705 3.64517 29.6084 2.31136 27.25 1.43431C22.9553 -0.125099 18.2562 -0.167006 13.9344 1.31556Z" fill="white"/>
<path d="M13.9344 1.31561C18.2558 -0.16796 22.955 -0.127156 27.25 1.43124C29.6088 2.31425 31.7699 3.65448 33.6094 5.37499C32.9844 6.04374 32.325 6.66874 31.6875 7.31874C30.475 8.52915 29.2635 9.7354 28.0531 10.9375C26.8464 9.78354 25.3868 8.92746 23.7906 8.43749C21.748 7.82074 19.5751 7.77851 17.5101 8.31543C15.4451 8.85235 13.5678 9.94768 12.0844 11.4812C10.7895 12.7985 9.80883 14.3913 9.21562 16.1406L2.7375 11.125C5.05628 6.52674 9.07109 3.00944 13.9344 1.31561Z" fill="#E33629"/>
<path d="M1.01875 16.0938C1.36694 14.3681 1.94501 12.697 2.7375 11.125L9.21563 16.1531C8.36817 18.6488 8.36817 21.3544 9.21563 23.85C7.05729 25.5167 4.89792 27.1917 2.7375 28.875C0.753597 24.926 0.148541 20.4266 1.01875 16.0938Z" fill="#F8BD00"/>
<path d="M20.3969 16.2969H38.9969C39.6331 19.7873 39.461 23.3771 38.4937 26.7906C37.6039 29.9296 35.8753 32.7667 33.4937 34.9969C31.4031 33.3656 29.3031 31.7469 27.2125 30.1156C28.249 29.4165 29.1337 28.5153 29.8135 27.466C30.4933 26.4168 30.9543 25.2411 31.1687 24.0094H20.3969C20.3937 21.4406 20.3969 18.8687 20.3969 16.2969Z" fill="#587DBD"/>
<path d="M2.73438 28.8751C4.89479 27.2084 7.05417 25.5334 9.2125 23.8501C10.0475 26.3007 11.6356 28.4248 13.75 29.9188C15.0688 30.8509 16.5673 31.498 18.15 31.8188C19.7096 32.1088 21.3092 32.1088 22.8687 31.8188C24.4237 31.5556 25.9065 30.9702 27.2219 30.1001C29.3125 31.7313 31.4125 33.3501 33.5031 34.9813C31.2153 37.0617 28.4263 38.5122 25.4094 39.1907C22.0794 39.9736 18.6091 39.936 15.2969 39.0813C12.6772 38.3819 10.2302 37.1488 8.10938 35.4595C5.86457 33.6772 4.03111 31.4313 2.73438 28.8751Z" fill="#319F43"/>
</g>
</g>
<defs>
<clipPath id="clip0_0_1">
<rect x="-112" y="-712" width="430" height="932" rx="55.47" fill="white"/>
</clipPath>
<clipPath id="clip1_0_1">
<rect width="40" height="40" fill="white"/>
</clipPath>
</defs>
</svg>
